<?xml version="1.0" standalone="no"?><!DOCTYPE svg PUBLIC "-//W3C//DTD SVG 1.1//EN" "http://www.w3.org/Graphics/SVG/1.1/DTD/svg11.dtd"><svg t="1730172700713" class="icon" viewBox="0 0 1024 1024" version="1.1" xmlns="http://www.w3.org/2000/svg" p-id="6213" xmlns:xlink="http://www.w3.org/1999/xlink" width="200" height="200"><path d="M942.287352 515.484848c47.698598 33.399018 61.798183 97.097146 34.198995 146.995679l-6.399812 10.599688-223.293437 318.790629c-3.299903 4.799859-7.999765 8.49975-13.499603 10.599689l-5.699832 1.599953-115.996591 19.499427c-13.299609 2.299932-26.299227-4.799859-31.799065-17.099498l-1.999941-6.399812-21.199377-115.796596c-1.099968-5.699832-0.399988-11.699656 1.999941-16.9995l2.899915-5.09985 223.193439-318.890627c35.898945-51.198495 106.396873-63.598131 157.595368-27.799182z m-167.995062 144.995737L616.496928 885.773963l13.899592 75.19779 75.297786-12.799624 157.795362-225.393375-89.197378-62.498163v0.199994z m64.098116-90.297345l-5.599835 6.7998-24.799272 35.398959 89.097381 62.498163 24.799272-35.498956c17.599483-24.399283 11.999647-58.398283-12.399636-75.997766-21.899356-15.799536-52.298463-12.999618-71.09791 6.7998zM530.499456 988.570941c0-19.599424-15.899533-35.398959-35.398959-35.398959h-2.499927c-177.094794 0-388.388583-23.199318-388.388583-132.996091 0-33.999001 113.996649-97.097146 285.891596-114.396637 17.999471-1.599953 31.799065-16.799506 31.799065-34.998971v-70.697922c0-12.299638-6.399812-23.7993-16.9995-30.099115-83.797537-50.398519-124.596338-150.195585-124.596337-304.791041 0-160.695276 112.896681-194.494283 207.593897-194.494283l9.399724-0.199994c94.697216 0 207.593898 33.599012 207.593898 194.494283 0 157.395373-38.898857 254.092531-122.996385 304.79104-10.1997 6.399812-16.799506 17.399489-16.9995 29.499133l-1.599953 70.697922c-0.399988 18.399459 13.299609 33.999001 31.799065 35.898945l0.499986 0.099997c20.799389 2.099938 38.898857-14.29958 38.898856-35.198965v-31.29908h-0.099997l0.099997-3.799889V629.981482h0.099997l0.199994-10.399694C775.192264 520.984686 775.192264 329.790306 775.192264 265.192205 775.192264 99.197084 671.295318 0 497.100438 0h-9.399724C313.505835 0 209.608889 99.197084 209.608889 265.192205c0 171.294965 46.298639 287.491549 141.595838 354.189589v20.099409c-158.395344 21.299374-317.690662 84.597513-317.690662 180.994679C33.514065 955.571911 188.009524 1023.969901 492.60057 1023.969901h2.599924c19.499427-0.099997 35.298962-15.899533 35.298962-35.39896z" fill="#8F4B28" p-id="6214"></path></svg>