<?xml version="1.0" standalone="no"?><!DOCTYPE svg PUBLIC "-//W3C//DTD SVG 1.1//EN" "http://www.w3.org/Graphics/SVG/1.1/DTD/svg11.dtd"><svg t="1730184120350" class="icon" viewBox="0 0 1024 1024" version="1.1" xmlns="http://www.w3.org/2000/svg" p-id="2555" xmlns:xlink="http://www.w3.org/1999/xlink" width="200" height="200"><path d="M303.118263 445.988571c0 39.277714 31.085714 71.168 69.412571 71.168S441.906834 485.266286 441.906834 445.988571c0-39.314286-31.085714-71.168-69.412571-71.168s-69.412571 31.817143-69.412572 71.168z m323.913143-185.051428c-27.757714 14.262857-87.917714 28.452571-115.675429 28.452571-27.794286 0-87.917714-14.226286-115.712-28.452571C314.674834 220.598857 115.689691 460.214857 175.849691 687.945143c6.948571 23.734857 13.897143 59.318857 41.654858 75.922286 25.453714 14.226286 108.726857-7.131429 161.974857-80.676572 43.958857-59.282286 94.866286-78.262857 131.876571-78.262857s87.917714 18.980571 131.876572 78.262857c55.552 73.545143 136.521143 94.902857 164.278857 78.262857 25.453714-16.566857 34.742857-52.150857 41.654857-75.885714 57.856-225.353143-141.165714-467.346286-222.134857-424.594286z m-254.537143 303.652571c-64.731429 0-115.675429-52.187429-115.675429-118.601143 0-66.450286 50.907429-118.637714 115.712-118.637714 64.768 0 115.675429 52.187429 115.675429 118.637714 0 66.413714-50.907429 118.601143-115.675429 118.601143z m215.222857-170.788571c9.252571-16.64 30.061714-23.771429 46.262857-14.262857 16.201143 9.508571 23.149714 30.866286 13.897143 47.469714-9.252571 16.603429-30.098286 23.698286-46.299429 14.226286-16.201143-9.508571-20.845714-30.829714-13.897142-47.433143z m90.221714 130.450286c-9.252571 16.603429-30.061714 23.734857-46.262857 14.262857-16.201143-9.508571-23.149714-30.866286-13.897143-47.469715 9.252571-16.603429 30.098286-23.734857 46.299429-14.262857 16.164571 7.131429 23.113143 28.525714 13.897143 47.469715z m20.845715-87.771429c-16.201143-9.508571-23.149714-30.829714-13.897143-47.433143 9.252571-16.603429 30.061714-23.734857 46.262857-14.262857 16.201143 9.508571 23.149714 30.866286 13.897143 47.469714-9.252571 16.603429-30.098286 23.734857-46.262857 14.262857z m80.969142 71.168c-9.252571 16.603429-30.098286 23.734857-46.262857 14.262857-16.201143-9.508571-23.149714-30.866286-13.897143-47.469714 9.252571-16.603429 30.061714-23.734857 46.262858-14.262857 16.201143 9.508571 23.149714 30.866286 13.897142 47.469714z" fill="#002FA7" p-id="2556"></path></svg>