<?xml version="1.0" standalone="no"?><!DOCTYPE svg PUBLIC "-//W3C//DTD SVG 1.1//EN" "http://www.w3.org/Graphics/SVG/1.1/DTD/svg11.dtd"><svg t="1730172560203" class="icon" viewBox="0 0 1024 1024" version="1.1" xmlns="http://www.w3.org/2000/svg" p-id="4057" xmlns:xlink="http://www.w3.org/1999/xlink" width="200" height="200"><path d="M432 873.6c-166.4 0-300.8-134.4-300.8-300.8V448c0-166.4 134.4-300.8 300.8-300.8s300.8 134.4 300.8 300.8v124.8c0 166.4-134.4 300.8-300.8 300.8z" fill="#81D8D0" p-id="4058"></path><path d="M985.6 649.6c9.6 0 19.2-3.2 25.6-9.6 6.4-6.4 9.6-16 9.6-25.6v-57.6c0-19.2-16-35.2-35.2-35.2-19.2 0-35.2 16-35.2 35.2v57.6c0 9.6 3.2 19.2 9.6 25.6 9.6 6.4 16 9.6 25.6 9.6z m0 0M950.4 326.4v76.8c0 19.2 16 35.2 35.2 35.2 19.2 0 35.2-16 35.2-35.2v-76.8h-70.4z m35.2 416c-19.2 0-35.2 16-35.2 35.2v124.8H1024v-124.8c0-19.2-16-35.2-38.4-35.2z" fill="#81D8D0" p-id="4059"></path><path d="M985.6 217.6c-35.2 0-35.2 35.2-35.2 51.2V352H1024V268.8c0-16 0-51.2-38.4-51.2zM656 547.2H198.4c-16 0-28.8 16-28.8 35.2 0 19.2 12.8 35.2 28.8 35.2h457.6c16 0 28.8-16 28.8-35.2 3.2-19.2-12.8-35.2-28.8-35.2zM950.4 896c0 32-25.6 57.6-57.6 57.6H105.6c-19.2 0-38.4-16-38.4-38.4V108.8c0-19.2 16-38.4 38.4-38.4h652.8c19.2 0 38.4 16 38.4 38.4v704c0 16 0 54.4 41.6 54.4 38.4 0 38.4-38.4 38.4-54.4V57.6c0-32-25.6-57.6-57.6-57.6h-736C38.4 0 0 38.4 0 86.4v854.4C0 985.6 38.4 1024 83.2 1024h854.4c48 0 86.4-38.4 86.4-86.4v-124.8h-73.6V896zM198.4 726.4c-16 0-28.8 16-28.8 35.2 0 19.2 12.8 35.2 28.8 35.2h457.6c16 0 28.8-16 28.8-35.2 0-19.2-12.8-35.2-28.8-35.2H198.4zM540.8 262.4c19.2 0 35.2-16 35.2-35.2 0-19.2-12.8-35.2-35.2-35.2h-214.4c-19.2 0-35.2 16-35.2 35.2 0 19.2 16 35.2 35.2 35.2h214.4z m115.2 108.8H198.4c-16 0-28.8 16-28.8 35.2 0 19.2 12.8 35.2 28.8 35.2h457.6c16 0 28.8-16 28.8-35.2 3.2-19.2-12.8-35.2-28.8-35.2z" fill="#81D8D0" p-id="4060"></path></svg>