<?xml version="1.0" standalone="no"?><!DOCTYPE svg PUBLIC "-//W3C//DTD SVG 1.1//EN" "http://www.w3.org/Graphics/SVG/1.1/DTD/svg11.dtd"><svg t="1730360898308" class="icon" viewBox="0 0 1535 1024" version="1.1" xmlns="http://www.w3.org/2000/svg" p-id="21722" xmlns:xlink="http://www.w3.org/1999/xlink" width="299.8046875" height="200"><path d="M234.591784 963.527772c-57.369143 0-104.041853-46.672711-104.041854-104.034628V166.045755c0-57.369143 46.672711-104.041853 104.041854-104.041853h1063.505632c57.361918 0 104.031016 46.672711 104.031016 104.041853v693.447389c0 57.361918-46.669098 104.034629-104.031016 104.034628H234.591784z m0 0" fill="#FFF3C0" p-id="21723"></path><path d="M1298.097416 73.569125c24.55736 0 47.826885 9.67953 65.312896 27.163734 17.484204 17.484204 27.163734 40.744699 27.163734 65.312896v693.447389c0 24.560972-9.67953 47.823273-27.163734 65.305671-17.487817 17.491429-40.755536 27.170959-65.312896 27.170959H234.591784c-24.568197 0-47.828691-9.67953-65.312896-27.170959-17.484204-17.484204-27.163734-40.746505-27.163734-65.305671V166.045755c0-24.568197 9.67953-47.828691 27.163734-65.312896 17.484204-17.484204 40.744699-27.163734 65.312896-27.163734h1063.505632m0-23.121415H234.591784c-63.577119 0-115.598046 52.020927-115.598046 115.598045v693.447389c0 63.577119 52.020927 115.598046 115.598046 115.598045h1063.505632c63.577119 0 115.598046-52.020927 115.598046-115.598045V166.045755c0-63.577119-52.020927-115.598046-115.598046-115.598045z m0 0" fill="#D17B26" p-id="21724"></path><path d="M1297.658505 920.4675h-1067.836947c-31.784044 0-57.799023-26.005948-57.799023-57.799022V167.203542c0-31.793075 26.014979-57.799023 57.799023-57.799023H1297.660311c31.789463 0 57.799023 26.005948 57.799023 57.799023V862.668478c-0.001806 31.791269-26.011366 57.799023-57.800829 57.799022z m0 0" fill="#FF9831" p-id="21725"></path><path d="M330.008939 381.077988v-56.267348h405.517944v56.267348h-170.743732v110.594818h151.341323v56.267349h-151.341323v118.356143H758.810858v54.327469H308.66665V666.296298h194.027707v-118.356143h-151.341322v-56.267349h151.341322v-110.594818h-172.685418z" fill="#AF5D1B" p-id="21726"></path><path d="M779.580576 741.397097H287.895126v-95.870517h194.027708v-76.813095h-151.341323v-97.810396h151.341323v-69.05177h-172.683612V304.040922H756.300213v97.810397h-170.743732v69.05177h151.341323v97.810396h-151.341323v76.813095h194.027708v95.870517z m-450.142402-41.543048H738.039335v-12.784421H544.011628v-159.899191h151.341322v-14.724301h-151.341322v-152.137865h170.743732v-14.724301H350.780463v14.724301h172.683612v152.137865h-151.341323v14.724301h151.341323v159.899191H329.438174v12.784421z" fill="#AF5D1B" p-id="21727"></path><path d="M840.302062 381.077988V334.511844h120.297829v-48.506023h58.209034V334.511844h108.654938v46.566144h-108.654938v46.566144h56.267349c46.566144-33.620969 88.586034-72.427594 126.117468-116.416263l46.566144 31.045301c-29.770109 31.0453-60.148914 59.511319-91.192409 85.372769h106.715059v48.506023h-170.743732a4205.012569 4205.012569 0 0 1-17.46253 11.641085c-10.3677 6.48794-27.163734 16.824934-50.44771 31.0453h180.444937v230.892646h-56.267349v-23.283975H929.554591v23.283975h-58.209035v-155.222888c-5.18385 1.30409-12.307579 4.548061-21.342289 9.701205-18.129025 6.48794-31.711795 11.641084-40.746505 15.52265l-17.46253-56.267349c84.068679-25.859644 153.281202-54.965064 207.608671-87.312649H797.615677v-48.506023h162.982407v-46.566144h-120.296022z m308.502284 182.386623H939.255795l-9.701204 3.87976v36.864939h219.251561v-40.744699z m-219.249755 81.491204v40.746505h219.251561v-40.746505H929.554591z" fill="#AF5D1B" p-id="21728"></path><path d="M1225.845025 770.502517h-97.810396v-23.283975h-177.708515v23.283975h-99.752082v-144.421696c-14.838093 5.373503-25.711534 9.554901-33.120646 12.73746l-21.195986 9.105152-30.472728-98.189702 19.904538-6.123084c47.077304-14.482268 89.622804-30.093422 127.280673-46.687161h-136.123923v-90.049071h162.982407v-5.023096h-120.297829V313.740321h120.297829v-48.506024h99.752082V313.740321h108.654938v24.275589a704.83199 704.83199 0 0 0 37.157547-40.269663l11.973429-14.034325 82.55326 55.035507-17.168116 17.901441a1195.943062 1195.943062 0 0 1-51.09253 50.223739h72.395083v90.049071H1098.846122l-1.712296 1.143337h128.711199v272.4375z m-56.269155-41.543048h14.724301V539.608064H950.759607l63.042478-38.497761c22.769203-13.906084 39.595943-24.259334 50.017829-30.77798 7.600571-5.048383 13.311837-8.855894 17.131992-11.422532l5.254292-3.529352h156.301202v-6.962977H1099.174854l44.095236-36.731279c24.212372-20.170053 48.394038-42.31611 72.109699-66.033577l-10.55374-7.035225a744.736796 744.736796 0 0 1-56.594274 56.655686v6.576445h-7.418144a734.098164 734.098164 0 0 1-53.5815 42.635811l-5.443946 3.930333h-83.754396v-88.109191h108.654938V355.283368h-108.654938v-48.506023h-16.665987V355.283368h-120.297829v5.023097h120.297829v88.109191h-162.982407v6.962976h256.504838l-64.859534 38.618779c-51.119623 30.43841-115.7299 58.342695-192.26845 83.059002l4.688946 15.109025a1366.878253 1366.878253 0 0 1 18.873187-6.912401c10.17624-5.704041 18.139862-9.177401 24.954728-10.889698l25.83797-6.498777v161.093101h16.665987V553.281146l26.471952-10.588059h234.320851v186.266382z m-129.997227-322.08686h28.726114a692.392556 692.392556 0 0 0 6.73178-5.023097h-35.457894v5.023097z" fill="#AF5D1B" p-id="21729"></path><path d="M330.008939 381.077988v-56.267348h405.517944v56.267348h-170.743732v110.594818h151.341323v56.267349h-151.341323v118.356143H758.810858v54.327469H308.66665V666.296298h194.027707v-118.356143h-151.341322v-56.267349h151.341322v-110.594818h-172.685418zM840.302062 381.077988V334.511844h120.297829v-48.506023h58.209034V334.511844h108.654938v46.566144h-108.654938v46.566144h56.267349c46.566144-33.620969 88.586034-72.427594 126.117468-116.416263l46.566144 31.045301c-29.770109 31.0453-60.148914 59.511319-91.192409 85.372769h106.715059v48.506023h-170.743732a4205.012569 4205.012569 0 0 1-17.46253 11.641085c-10.3677 6.48794-27.163734 16.824934-50.44771 31.0453h180.444937v230.892646h-56.267349v-23.283975H929.554591v23.283975h-58.209035v-155.222888c-5.18385 1.30409-12.307579 4.548061-21.342289 9.701205-18.129025 6.48794-31.711795 11.641084-40.746505 15.52265l-17.46253-56.267349c84.068679-25.859644 153.281202-54.965064 207.608671-87.312649H797.615677v-48.506023h162.982407v-46.566144h-120.296022z m308.502284 182.386623H939.255795l-9.701204 3.87976v36.864939h219.251561v-40.744699z m-219.249755 81.491204v40.746505h219.251561v-40.746505H929.554591z" fill="#FFF878" p-id="21730"></path></svg>