<?xml version="1.0" standalone="no"?><!DOCTYPE svg PUBLIC "-//W3C//DTD SVG 1.1//EN" "http://www.w3.org/Graphics/SVG/1.1/DTD/svg11.dtd"><svg t="1730360863046" class="icon" viewBox="0 0 1535 1024" version="1.1" xmlns="http://www.w3.org/2000/svg" p-id="20373" xmlns:xlink="http://www.w3.org/1999/xlink" width="299.8046875" height="200"><path d="M234.591784 963.527772c-57.369143 0-104.041853-46.672711-104.041854-104.034628V166.045755c0-57.369143 46.672711-104.041853 104.041854-104.041853h1063.505632c57.361918 0 104.031016 46.672711 104.031016 104.041853v693.447389c0 57.361918-46.669098 104.034629-104.031016 104.034628H234.591784z m0 0" fill="#DFB6FF" p-id="20374"></path><path d="M1298.097416 73.569125c24.55736 0 47.826885 9.67953 65.312896 27.163734 17.484204 17.484204 27.163734 40.744699 27.163734 65.312896v693.447389c0 24.560972-9.67953 47.823273-27.163734 65.305671-17.487817 17.491429-40.755536 27.170959-65.312896 27.170959H234.591784c-24.568197 0-47.828691-9.67953-65.312896-27.170959-17.484204-17.484204-27.163734-40.746505-27.163734-65.305671V166.045755c0-24.568197 9.67953-47.828691 27.163734-65.312896 17.484204-17.484204 40.744699-27.163734 65.312896-27.163734h1063.505632m0-23.121415H234.591784c-63.577119 0-115.598046 52.020927-115.598046 115.598045v693.447389c0 63.577119 52.020927 115.598046 115.598046 115.598045h1063.505632c63.577119 0 115.598046-52.020927 115.598046-115.598045V166.045755c0-63.577119-52.020927-115.598046-115.598046-115.598045z m0 0" fill="#8136C9" p-id="20375"></path><path d="M1297.658505 920.4675h-1067.836947c-31.784044 0-57.799023-26.005948-57.799023-57.799022V167.203542c0-31.793075 26.014979-57.799023 57.799023-57.799023H1297.660311c31.789463 0 57.799023 26.005948 57.799023 57.799023V862.668478c-0.001806 31.791269-26.011366 57.799023-57.800829 57.799022z m0 0" fill="#B563ED" p-id="20376"></path><path d="M328.330961 497.183582V302.133554h388.089733v195.050028h-154.834551v42.227605h176.953514v44.237927h-176.953514v36.194831h160.867324v44.237928h-160.867324v36.194831h199.072478v44.237927h-478.575909v-44.237927h217.168991v-36.194831h-146.791456v-44.237928h146.791456v-36.194831H372.568889c-13.416598 22.810746-31.513111 46.248249-54.293151 70.379341-5.373503-5.340991-16.086191-13.384086-32.174188-24.129286-5.373503-4.022451-9.394147-6.692043-12.065546-8.043095 33.492727-32.174187 58.313795-69.687559 74.399986-112.606946l58.313796 4.022451c-4.022451 8.043095-8.043095 16.777973-12.065546 26.141414h104.563851v-42.227605h-170.91713z m60.325924-148.801778v32.174187h267.439691v-32.174187H388.656885z m0 72.39147v32.174187h267.439691v-32.174187H388.656885z" fill="#EDD7FF" p-id="20377"></path><path d="M781.431951 765.287961H261.311188v-85.780974h53.133558l-10.810223-10.7452c-2.487164-2.474521-9.572963-8.566899-29.06749-21.589741l-0.908528-0.641208c-6.227845-4.661852-8.584961-5.931625-8.994973-6.137534l-26.135996-13.223332 21.123737-20.289264c26.878352-25.821713 47.946096-55.673102 62.782382-88.920184h-14.870605V281.362031h429.63278v236.593075H582.361279v0.684557h176.953515v85.780974h-16.086191v75.084544h38.205154v85.78278z m-478.577715-41.543047h437.034667v-2.69488H540.816425v-77.737879h160.867324v-2.694879h-160.867324v-77.73788h176.953515v-2.694879h-176.953515v-83.770653h154.834551v-153.50698H349.102485v153.50698h170.920742v83.770653h-156.862936l12.139601-28.26011-13.230557-0.912141c-13.767005 31.984534-32.484857 61.265158-55.871787 87.419216a426.681417 426.681417 0 0 1 9.950463 7.064124 422.601168 422.601168 0 0 0 15.542519-18.824419v-7.596959h5.749196c6.482522-8.801707 12.233524-17.467948 17.225915-25.953568l6.023742-10.241264h159.333844v77.73788h-146.791456v2.694879h146.791456v77.737879H302.854236v2.69488z m19.93705-44.237927h8.899244v-9.42666l-8.899244 9.42666z m104.500634-160.867324h51.188259v-0.684557h-50.845078l-0.343181 0.684557z m249.57618-44.922485H367.885362v-146.106898h308.982738v146.106898z" fill="#662F91" p-id="20378"></path><path d="M790.822486 531.368091v-48.260378h66.356891V284.035235h50.2707v199.072478h62.336246v48.260378h-32.174187v138.746555l36.194831-28.151737c0 18.788295 1.31854 37.545884 4.022451 56.303473-21.459693 9.363442-38.205154 20.767911-50.2707 34.18451-8.043095 6.692043-14.76765 12.724816-20.108641 18.098319l-26.141415-36.194832c9.363442-8.043095 13.384086-20.767911 12.065546-38.205154v-144.779327h-26.141414v12.065546c0 54.983127-3.361374 97.210731-10.053417 126.682814-6.724555 28.151737-20.800423 59.634142-42.227605 94.508627-2.702104-4.022451-7.383825-11.40447-14.075868-22.118963-6.724555-9.394147-12.065546-16.777973-16.086191-22.118964 28.151737-38.86623 40.876553-97.180026 38.205154-174.941386v-14.075868h-32.172381z m26.141414-78.422436c-6.724555-34.84378-16.086191-71.697882-28.151736-110.594818l34.184509-10.053418c2.671399 8.043095 6.032773 20.108641 10.053418 36.194832 9.363442 30.853841 16.086191 54.983127 20.108641 72.389664l-36.194832 12.06374z m124.670686 0l-32.174187-12.065546c13.384086-37.515178 24.790362-73.048934 34.18451-106.574174l34.184509 10.053418c-5.373503 17.437243-13.416598 41.568335-24.129286 72.389664-5.373503 16.087997-9.394147 28.153543-12.065546 36.196638z m32.174188 172.931063c-1.351052-13.384086-6.032773-31.482405-14.075869-54.29315 32.174187-26.800684 56.303473-60.324118 72.389664-100.541401l52.281022 8.043096-6.032773 12.065546c-4.022451 8.043095-7.383825 13.416598-10.053417 16.08619h60.324117c-1.351052-2.671399-3.361374-7.351313-6.032773-14.075868a1058.469892 1058.469892 0 0 1-6.032773-12.065546l50.2707-8.043095 14.075869 34.184509h86.465532v38.205154h-92.496499v32.174188h84.45521v34.184509H1174.891574v30.162059h84.45521v34.18451H1174.891574v28.151736h100.5414v38.205154H1050.219082v20.108641h-50.2707V599.73711l-26.139608 26.139608z m8.043095-148.801778l-10.053418-42.227604c33.492727-9.363442 65.005838-18.757589 94.508627-28.151737V342.350837h-86.465531v-42.227605h132.715587v168.910419h-46.248249v-20.108641c-28.153543 6.722749-56.305279 16.086191-84.457016 28.14993z m44.237927-64.346568c-1.351052-1.31854-3.361374-2.671399-6.032773-4.022451-12.065546-10.714494-24.821068-22.778234-38.205154-36.194831l26.141414-22.118964a1412.694816 1412.694816 0 0 1 46.248249 36.194832l-28.151736 26.141414z m24.129286 132.715588v32.174187h74.399986v-32.174187h-74.399986z m0 66.35689v30.162059h74.399986v-30.162059h-74.399986z m0 64.346569v28.151736h74.399986v-28.151736h-74.399986z m82.444887-207.115574l-10.053417-40.217282c9.363442-2.671399 22.118964-6.692043 38.205154-12.065546 21.427181-6.692043 38.86623-12.065546 52.281022-16.086191V342.350837h-84.45521v-42.227605h130.703459v178.963837h-46.248249V440.880109a952.690456 952.690456 0 0 1-80.432759 28.151736z m38.205154-58.313795c-5.373503-5.340991-12.757328-12.065546-22.118963-20.108641-9.394147-9.363442-16.777973-16.086191-22.118964-20.108642l26.141414-22.118963c16.086191 12.065546 30.821329 24.129286 44.237927 36.194832l-26.141414 26.141414z" fill="#EDD7FF" p-id="20379"></path><path d="M815.733865 803.030723l-18.022458-26.822359c-2.642499-3.93214-7.000907-10.774099-14.106574-22.146056-7.336863-10.244877-11.957173-16.597351-15.410664-21.183342l-9.227976-12.255199 8.998586-12.424984c24.537491-33.875646 36.117164-86.362577 34.442799-156.060974h-32.360228v-89.803426h27.570134l-1.053026-5.454782c-6.578251-34.086974-15.860413-70.550932-27.595421-108.378587l-6.245907-20.132122 73.65763-21.663796 0.02348 0.06683v-43.508214h91.813748v49.102076l1.098182-3.923109 29.748434 8.749327v-37.840298h321.048285v207.115574h8.043095v79.748201h-8.043095v117.312148h16.08619v79.748202H1070.990606v20.108641h-91.813748v-62.874499c-15.282423 7.436206-27.429249 16.106059-36.173157 25.828938l-1.004258 1.11805-1.155981 0.959102c-7.627665 6.347055-13.906084 11.991491-18.661859 16.774361l-17.24759 17.348738-43.791791-60.634788c-7.535548 17.065161-17.050712 34.968409-28.491306 53.592338l-16.917051 27.534009z m204.98604-61.189296h8.727653V528.010329h-3.496841a265.752682 265.752682 0 0 1-42.117425 50.034086c0.704426 2.187332 1.372727 4.327702 2.006709 6.424722l34.879904-34.879904v192.252194z m-210.662988-22.146057c1.130693 1.560574 2.346279 3.245776 3.653982 5.068252 11.142568-21.494012 18.927374-41.373263 23.237013-59.359597 6.312737-27.871773 9.513358-68.905466 9.513358-121.968581v-32.83707h67.684462v164.804882c1.054832 15.439564-1.282416 28.585229-6.96117 39.301529l3.478779 4.815382c0.816411-0.693588 1.650885-1.396208 2.499808-2.107859a128.86834 128.86834 0 0 1 10.418274-10.064254l-6.737199 5.239842v-201.989522h32.174187v-6.71733h-62.336246v-49.35856l-3.650369-1.369114 3.650369-10.230427v-138.114378h-8.727652V503.881044h-66.356891v6.71733h32.174188v34.493373c2.494389 74.042354-8.839638 132.677657-33.714893 174.603623z m335.335481 2.039222h8.727652V528.010329h-8.727652v193.724263z m-190.344826-38.864425l-19.386153 15.080127c6.05806-4.246422 12.634505-8.230942 19.70766-11.942723-0.111986-1.045801-0.218553-2.091602-0.321507-3.137404z m205.694079-158.197731h4.898467l-11.740427-28.511174-7.008131 1.121662 0.285382 0.57799 13.564709 26.811522z m-115.939421-30.662382a284.927508 284.927508 0 0 1-7.461493 14.829062l13.846478-13.846478-6.384985-0.982584z m-54.244383 1.932655v10.262939a232.818076 232.818076 0 0 0 8.373633-13.756167c-2.796028 1.137918-5.588443 2.304736-8.373633 3.493228z m198.433076-23.665087l3.334281 8.095475v-9.305642c-1.110825 0.406399-2.219844 0.809186-3.334281 1.210167z m44.877329-13.962077h4.705202v-137.420789h-89.160412v0.684557h84.45521v136.736232z m-146.78965-10.055224h4.705202V320.89295h-91.17254v0.684557h86.465532v100.302979l-9.114183 2.902595 9.114183-2.178301v25.655541zM981.12035 400.926534c-1.186686 3.482391-2.416722 7.067737-3.686494 10.756037 3.861697-1.094569 7.699914-2.19275 11.518262-3.290932a993.837941 993.837941 0 0 1-7.831768-7.465105z" fill="#662F91" p-id="20380"></path><path d="M326.524742 497.183582V302.133554h388.089732v195.050028h-154.834551v42.227605h176.953515v44.237927h-176.953515v36.194831h160.867324v44.237928h-160.867324v36.194831h199.072479v44.237927h-478.575909v-44.237927h217.168991v-36.194831h-146.791456v-44.237928h146.791456v-36.194831H370.762669c-13.416598 22.810746-31.513111 46.248249-54.293151 70.379341-5.373503-5.340991-16.086191-13.384086-32.174187-24.129286-5.373503-4.022451-9.394147-6.692043-12.065546-8.043095 33.492727-32.174187 58.313795-69.687559 74.399986-112.606946l58.313795 4.022451c-4.022451 8.043095-8.043095 16.777973-12.065546 26.141414h104.563851v-42.227605h-170.917129z m60.325924-148.801778v32.174187h267.439691v-32.174187H386.850666z m0 72.39147v32.174187h267.439691v-32.174187H386.850666zM789.016267 531.368091v-48.260378h66.35689V284.035235h50.2707v199.072478h62.336246v48.260378h-32.174187v138.746555l36.194832-28.151737c0 18.788295 1.31854 37.545884 4.022451 56.303473-21.459693 9.363442-38.205154 20.767911-50.2707 34.18451-8.043095 6.692043-14.76765 12.724816-20.108642 18.098319l-26.141414-36.194832c9.363442-8.043095 13.384086-20.767911 12.065546-38.205154v-144.779327h-26.141414v12.065546c0 54.983127-3.361374 97.210731-10.053418 126.682814-6.724555 28.151737-20.800423 59.634142-42.227605 94.508627-2.702104-4.022451-7.383825-11.40447-14.075868-22.118963-6.724555-9.394147-12.065546-16.777973-16.08619-22.118964 28.151737-38.86623 40.876553-97.180026 38.205154-174.941386v-14.075868h-32.172381z m26.141414-78.422436c-6.724555-34.84378-16.086191-71.697882-28.151737-110.594818l34.18451-10.053418c2.671399 8.043095 6.032773 20.108641 10.053417 36.194832 9.363442 30.853841 16.086191 54.983127 20.108642 72.389664l-36.194832 12.06374z m124.670686 0l-32.174187-12.065546c13.384086-37.515178 24.790362-73.048934 34.184509-106.574174l34.18451 10.053418c-5.373503 17.437243-13.416598 41.568335-24.129286 72.389664-5.373503 16.087997-9.394147 28.153543-12.065546 36.196638z m32.174187 172.931063c-1.351052-13.384086-6.032773-31.482405-14.075868-54.29315 32.174187-26.800684 56.303473-60.324118 72.389663-100.541401l52.281023 8.043096-6.032773 12.065546c-4.022451 8.043095-7.383825 13.416598-10.053418 16.08619h60.324118c-1.351052-2.671399-3.361374-7.351313-6.032773-14.075868a1058.469892 1058.469892 0 0 1-6.032773-12.065546l50.2707-8.043095 14.075868 34.184509h86.465532v38.205154h-92.496499v32.174188h84.45521v34.184509H1173.085354v30.162059h84.45521v34.18451H1173.085354v28.151736h100.541401v38.205154H1048.412862v20.108641h-50.2707V599.73711l-26.139608 26.139608z m8.043095-148.801778l-10.053417-42.227604c33.492727-9.363442 65.005838-18.757589 94.508627-28.151737V342.350837h-86.465532v-42.227605h132.715588v168.910419h-46.24825v-20.108641c-28.153543 6.722749-56.305279 16.086191-84.457016 28.14993z m44.237927-64.346568c-1.351052-1.31854-3.361374-2.671399-6.032773-4.022451-12.065546-10.714494-24.821068-22.778234-38.205154-36.194831l26.141415-22.118964a1412.694816 1412.694816 0 0 1 46.248249 36.194832l-28.151737 26.141414z m24.129286 132.715588v32.174187h74.399986v-32.174187h-74.399986z m0 66.35689v30.162059h74.399986v-30.162059h-74.399986z m0 64.346569v28.151736h74.399986v-28.151736h-74.399986z m82.444888-207.115574l-10.053418-40.217282c9.363442-2.671399 22.118964-6.692043 38.205154-12.065546 21.427181-6.692043 38.86623-12.065546 52.281023-16.086191V342.350837h-84.45521v-42.227605h130.703459v178.963837h-46.248249V440.880109a952.690456 952.690456 0 0 1-80.432759 28.151736z m38.205154-58.313795c-5.373503-5.340991-12.757328-12.065546-22.118964-20.108641-9.394147-9.363442-16.777973-16.086191-22.118963-20.108642l26.141414-22.118963c16.086191 12.065546 30.821329 24.129286 44.237927 36.194832l-26.141414 26.141414z" fill="#EDD7FF" p-id="20381"></path></svg>