<?xml version="1.0" standalone="no"?><!DOCTYPE svg PUBLIC "-//W3C//DTD SVG 1.1//EN" "http://www.w3.org/Graphics/SVG/1.1/DTD/svg11.dtd"><svg t="1730360696500" class="icon" viewBox="0 0 1535 1024" version="1.1" xmlns="http://www.w3.org/2000/svg" p-id="2578" xmlns:xlink="http://www.w3.org/1999/xlink" width="299.8046875" height="200"><path d="M142.115154 859.493144c0 24.560972 9.67953 47.823273 27.163734 65.305671 17.484204 17.491429 40.744699 27.170959 65.312896 27.170959h1063.505632c24.55736 0 47.826885-9.67953 65.312896-27.170959 17.484204-17.484204 27.163734-40.746505 27.163734-65.305671V166.045755c0-24.568197-9.67953-47.828691-27.163734-65.312896-17.487817-17.484204-40.755536-27.163734-65.312896-27.163734H234.591784c-24.568197 0-47.828691 9.67953-65.312896 27.163734-17.484204 17.484204-27.163734 40.744699-27.163734 65.312896v693.447389z" fill="#EEAF8B" p-id="2579"></path><path d="M119.210485 159.261595v707.015709c3.543803 60.450553 54.081823 108.813885 115.381299 108.813885h1063.505632c63.577119 0 115.598046-52.020927 115.598046-115.598045V166.045755c0-63.577119-52.020927-115.598046-115.598046-115.598045H234.591784c-61.299476 0-111.837497 48.365139-115.381299 108.813885z m115.381299-85.69247h1063.505632c24.55736 0 47.826885 9.67953 65.312896 27.163734 17.484204 17.484204 27.163734 40.744699 27.163734 65.312896v693.447389c0 24.560972-9.67953 47.823273-27.163734 65.305671-17.487817 17.491429-40.755536 27.170959-65.312896 27.170959H234.591784c-24.568197 0-47.828691-9.67953-65.312896-27.170959-17.484204-17.484204-27.163734-40.746505-27.163734-65.305671V166.045755c0-24.568197 9.67953-47.828691 27.163734-65.312896 17.484204-17.484204 40.744699-27.163734 65.312896-27.163734z" fill="#B95A24" p-id="2580"></path><path d="M1297.658505 920.4675h-1067.836947c-31.784044 0-57.799023-26.005948-57.799023-57.799022V167.203542c0-31.793075 26.014979-57.799023 57.799023-57.799023H1297.660311c31.789463 0 57.799023 26.005948 57.799023 57.799023V862.668478c-0.001806 31.791269-26.011366 57.799023-57.800829 57.799022z m0 0" fill="#994A2B" p-id="2581"></path><path d="M337.186856 757.329759V495.207578h375.256543v185.540282c1.444976 43.927257-24.709082 69.646016-73.688336 72.678658h-89.451212l-3.612439-7.224878c-1.876662-3.753324-5.051996-11.556192-10.548322-34.966602-1.585861-4.911111-2.454652-9.24965-2.454652-13.151084v-14.012651l14.019875 1.009677c16.474528 1.298672 40.025823 1.876662 70.083122 1.876662h0.57799c1.298672 0 2.454652 0.14811 3.612439 0.14811 9.67953 0 12.854864-2.313767 13.723655-3.323444 1.15598-1.157787 1.585861-3.323444 1.585861-5.348216H413.048073v78.895667h-75.861217z m299.395325-137.415371v-2.745454H413.048073v2.745454h223.534108z m0-61.411462v-4.62934H413.048073v4.62934h223.534108z m-353.152029-66.038996v-58.667814h201.577704v-2.743647H317.966874v-58.667815h166.892872v-2.743647h-190.014287v-58.667815h190.014287v-38.430931h77.88599v38.430931h191.896368v58.667815H562.745736v2.743647h166.891066v58.667815H562.745736v2.743647h201.575898v58.667814H283.430152z m0 0" fill="#FFD2BB" p-id="2582"></path><path d="M549.740956 285.545235v38.438156h191.890949v32.654642H549.740956v28.75682h166.892872v32.654642H549.740956v28.75682h201.570479v32.654641h-454.878309v-32.654641H498.01083V418.049495h-167.040982v-32.654642h166.900097V356.638033H307.850239v-32.654642h190.019706V285.545235h51.871011m149.697663 222.672541v172.670969c1.298672 37.141291-19.218175 56.932037-61.411462 59.534799h-80.629637c-2.597344-5.059221-5.778096-16.037423-9.533226-32.652835-1.30409-3.901434-1.883887-7.083993-1.883887-9.538645 16.624444 1.298672 40.316625 1.876662 70.951913 1.876662 1.444976 0.14811 3.032642 0.14811 4.331314 0.14811 20.086967 0 29.477502-8.382665 28.180636-25.146187v-9.538645H400.045099v78.754781H350.189829v-236.109009h349.24879m-299.39352 63.28993h249.547281V540.872418h-249.547281v30.635288m0 61.411462h249.547281v-28.758626h-249.547281v28.758626m175.703611-373.379881h-103.893744v38.430932H281.842485v84.680987h23.121415v38.141936H270.427178v84.680987h53.756704v264.856797h101.867165V691.58337h93.782527v6.646888c0 5.059221 0.85976 10.548322 2.886339 16.615413 5.637211 23.840291 8.958849 32.222955 11.415307 37.282175l7.224877 14.301646h98.113842c27.311844-1.728552 48.697483-9.822221 63.577118-24.129286 15.607542-15.168631 23.121415-35.835394 22.25443-61.841342v-174.982929h51.869205V420.794948H742.645194v-38.141936H767.643272V297.972025H575.74871v-38.432738z m0 0" fill="#5E2106" p-id="2583"></path><path d="M804.78095 702.133498l8.812545-7.950978c8.527162-7.513873 11.991491-17.62509 10.985427-31.644965v-70.364892h-51.872817V523.966204h51.872817v-29.618387h-30.635289v-27.022849c-2.16927-4.049544-6.509615-11.126312-14.449755-23.840291-4.483037-4.62934-7.365763-8.382665-9.10154-11.995103l-3.036255-6.357893 3.614245-6.074316c27.301007-45.944804 46.235606-91.170734 56.063246-134.379115l2.745453-11.846994 76.439208 11.706108-4.042319 14.158955c-3.612439 12.713979-7.954591 25.718759-12.721204 39.010728h48.404876v-40.314819H1244.051717V678.723088c0.722488 22.973305-5.062833 40.894615-17.197015 53.467708-12.424984 12.854864-31.065169 19.360866-55.340758 19.360866h-73.977331l-2.024772-10.407436c-3.760549-18.492075-6.935883-33.951507-9.542257-45.803919l-3.753324-16.756298 17.197015 1.009676c22.100901 1.298672 40.025823 1.876662 54.901847 1.876662h0.581602c1.154174 0 2.313767 0.14811 3.467942 0.14811 6.646888 0 11.559805-1.157787 13.584576-3.471554 2.013935-2.165657 2.162045-6.498778 2.013935-9.67953V454.173884h-164.147418v303.155875h-71.959784v-60.255482c-6.495165 2.454652-18.927374 8.812545-42.619554 24.998078-6.366924 5.059221-11.418919 8.812545-15.320354 11.415307a276.546649 276.546649 0 0 1-23.55852 17.632314l-10.255714 6.935883-41.320883-55.922361z m91.896834-58.525123l41.179997-30.487178v-20.948534h-41.179997v51.435712z m41.179997-119.642171v-117.910007h-78.743943l-2.172882 4.33854a873.1879 873.1879 0 0 1-9.10154 17.625089h87.135639v66.329797h-38.441769v29.618387h41.324495z m235.96993-140.016327v-16.185532h-164.010146v16.185532h164.010146z m-159.236308 281.19044V470.2095h152.728499V665.140317h-152.728499z m88.286201-68.204653v-60.396366h-23.842097v60.396366h23.842097z m0 0" fill="#FFD2BB" p-id="2584"></path><path d="M839.458557 287.570007l49.851658 7.656564c-5.055608 17.919503-11.563417 36.413384-19.216369 55.63156h63.436234v42.193286H851.018362l-5.785321 11.556192c-3.890597 7.661983-10.259327 19.797972-19.212756 36.413385h95.944571v40.316624H883.530312v55.63156h49.999768v42.19148h-49.858882v90.170088l44.078979-32.66006c0 8.960655 1.876662 23.699406 5.778096 44.075367v3.901434c-10.262939 3.901434-25.576068 12.713979-46.096527 26.87474-6.35428 5.059221-11.563417 8.960655-15.314934 11.556192-7.661983 6.363311-15.320353 12.143213-22.984143 17.343319l-26.874739-36.413384c11.567029-10.259327 16.619025-24.277396 15.320353-42.191481v-82.508105H785.705466v-42.19148h51.876429v-55.77967H806.946607v-17.336094c-2.59915-5.059221-8.386277-14.738751-17.339707-28.758626-3.901434-3.901434-6.35428-7.076768-7.661983-9.53142 28.182442-47.250701 47.250701-93.352647 57.51364-138.141471m391.590186 22.973305v368.468771c1.295059 39.595943-18.495687 59.5348-59.534799 59.534799h-63.288124c-3.901434-19.219981-7.076768-34.536722-9.542258-46.09472 21.674634 1.298672 40.318431 1.876662 55.633366 1.876662 1.450394 0.140885 2.74726 0.140885 4.194042 0.140885 20.227852 0 29.625612-8.95343 28.466018-27.015625V354.759565h-190.158785v389.565413H950.866174V310.543312h280.182569M1165.734041 396.954658v44.068142h-147.672891v-44.068142H1165.734041m-11.559804 86.266847v168.915838h-126.720745v-168.915838H1154.174237m-88.145316 126.724358h49.858882v-86.409539h-49.858882v86.409539M819.519701 258.092505l-5.348216 23.551296c-9.53142 41.902485-28.034332 85.979659-54.61827 130.625791l-7.224878 12.135989 6.207976 12.573094c2.172882 4.622116 5.637211 9.24965 10.555547 14.449755 5.917175 9.390535 9.529614 15.459432 11.843381 19.219982v36.554269h30.635288v3.612439h-51.878235v94.212407h51.878235v58.236128c0.870598 12.424984-2.889951 17.62509-6.643275 20.948533l-17.7732 15.755653 14.012651 19.071871 26.874739 36.413385 14.738751 19.938856 20.661345-13.723655c8.095476-5.348216 16.185533-11.415307 24.281008-18.062195 4.042319-2.750872 8.95343-6.363311 15.168631-11.415307 8.960655-6.215201 16.185533-10.696432 21.811906-14.160761v52.302697h98.113841V678.145097h45.814757l4.470393 19.938857c2.606375 11.704302 5.785321 27.022849 9.542258 45.522149l4.190429 20.948533H1171.513944c28.028914 0 49.703547-7.802868 64.734905-23.2623 14.597866-15.027746 21.530136-36.124389 20.804036-62.710134v-394.044838H924.854807v40.314819h-17.339706a395.041871 395.041871 0 0 0 6.93227-22.543425l8.095476-28.319715-29.188507-4.481231-49.851657-7.661983-23.982982-3.753324z m90.170088 249.258286h15.165018v3.612439h-15.165018v-3.612439z m0 97.965731h15.165018v1.446782l-12.424983 9.24965-2.59915 2.017547v-12.713979h-0.140885z m0 0" fill="#5E2106" p-id="2585"></path></svg>