<?xml version="1.0" standalone="no"?><!DOCTYPE svg PUBLIC "-//W3C//DTD SVG 1.1//EN" "http://www.w3.org/Graphics/SVG/1.1/DTD/svg11.dtd"><svg t="1730360752152" class="icon" viewBox="0 0 1535 1024" version="1.1" xmlns="http://www.w3.org/2000/svg" p-id="3789" xmlns:xlink="http://www.w3.org/1999/xlink" width="299.8046875" height="200"><path d="M234.591784 963.527772c-57.369143 0-104.041853-46.672711-104.041854-104.034628V166.045755c0-57.369143 46.672711-104.041853 104.041854-104.041853h1063.505632c57.361918 0 104.031016 46.672711 104.031016 104.041853v693.447389c0 57.361918-46.669098 104.034629-104.031016 104.034628H234.591784z m0 0" fill="#C5CBCE" p-id="3790"></path><path d="M1298.097416 73.569125c24.55736 0 47.826885 9.67953 65.312896 27.163734 17.484204 17.484204 27.163734 40.744699 27.163734 65.312896v693.447389c0 24.560972-9.67953 47.823273-27.163734 65.305671-17.487817 17.491429-40.755536 27.170959-65.312896 27.170959H234.591784c-24.568197 0-47.828691-9.67953-65.312896-27.170959-17.484204-17.484204-27.163734-40.746505-27.163734-65.305671V166.045755c0-24.568197 9.67953-47.828691 27.163734-65.312896 17.484204-17.484204 40.744699-27.163734 65.312896-27.163734h1063.505632m0-23.121415H234.591784c-63.577119 0-115.598046 52.020927-115.598046 115.598045v693.447389c0 63.577119 52.020927 115.598046 115.598046 115.598045h1063.505632c63.577119 0 115.598046-52.020927 115.598046-115.598045V166.045755c0-63.577119-52.020927-115.598046-115.598046-115.598045z m0 0" fill="#959A9D" p-id="3791"></path><path d="M1297.658505 920.4675h-1067.836947c-31.784044 0-57.799023-26.005948-57.799023-57.799022V167.203542c0-31.793075 26.014979-57.799023 57.799023-57.799023H1297.660311c31.789463 0 57.799023 26.005948 57.799023 57.799023V862.668478c-0.001806 31.791269-26.011366 57.799023-57.800829 57.799022z m0 0" fill="#899396" p-id="3792"></path><path d="M633.695843 755.014185v-30.628063H386.173334v30.628063h-90.310974V328.894502h129.469812c5.778096-18.210305 10.837317-35.694509 14.879635-52.161812l3.612439-14.449756 97.824846 9.10154-18.492074 57.510028H721.982044v426.119683h-88.286201z m0-111.40581V568.904944H386.173334v74.703431h247.522509z m0-157.354227v-72.826769H386.173334v72.826769h247.522509z m0 0" fill="#D3DADD" p-id="3793"></path><path d="M457.116215 280.924925l61.411462 5.778097-19.218175 59.534799h205.329222V737.678091H650.889246v-30.633482H368.830014v30.635288h-55.631559V346.237821h124.699585c7.802868-23.121415 14.158954-44.796049 19.218175-65.312896M368.830014 503.592048h282.059232v-107.506182H368.830014v107.506182m0 157.35784h282.059232v-109.382844H368.830014v109.382844m61.991258-417.307138l-7.224877 28.899511a1053.329392 1053.329392 0 0 1-10.837317 39.010728h-134.099152V772.357504h124.997612v-30.635288h212.694985v30.635288H739.466248V311.552989H546.997308l4.622116-14.160761 13.291969-41.176385-43.060272-4.049544-61.411462-5.779902-29.618387-2.743647zM403.509428 430.763473h212.70221v38.149162H403.509428v-38.149162z m0 155.482984h212.70221v40.025824H403.509428v-40.025824z m0 0" fill="#5D6466" p-id="3794"></path><path d="M789.6069 697.363272l10.262939-10.259326c6.646888-6.646888 9.238813-14.449756 8.382665-24.709082v-68.495455h-55.635172V517.030321h55.635172v-24.855386H775.590637V465.878186c-6.935883-12.424984-15.029552-25.427958-23.992013-39.017953l-6.496971-9.820415 6.785966-9.67953c25.72779-36.704186 46.961706-81.068548 62.856438-131.494583l4.483036-14.308871 77.304387 12.432209v14.738751c0 3.323444-0.7261 6.935883-2.741841 13.143859l-0.14811 0.437105c-3.327056 9.244231-6.50239 17.62509-9.53142 24.849967h54.475579V284.967245H1215.296703v261.392468l35.835394 47.828691-18.643797 9.24965c-1.295059 0.57799-4.477618 2.313767-12.280486 7.076768-17.197016 10.118441-32.36384 18.92918-45.374039 26.303974 18.35119 13.002974 40.750117 23.840291 66.759677 32.51195l19.068259 6.357893-9.10154 17.914084c-2.741841 5.348216-6.787773 12.721204-11.846993 21.822744l-0.57799 1.009677-0.715263 0.866985c-8.386277 11.126312-11.707915 17.632314-13.154696 20.955758l-6.502391 16.326418-16.326417-6.794998c-40.166708-16.615413-74.125441-38.579042-101.57817-65.742776 0.140885 2.745454 0.42988 5.200106 0.718875 7.661983l1.298672 13.002974-12.135989 4.770226c-13.002974 5.200106-33.089941 13.002974-59.675685 23.11419l-1.018707 0.437105-1.006065 0.288995c-11.126312 2.745454-16.763523 4.911111-19.364479 6.357893-12.858476 6.357893-24.416475 12.135989-34.533109 17.336094l-13.440079 6.654113-38.293659-54.764574c-18.062195 8.52355-36.265274 18.492075-54.327469 29.909188l-1.883887 1.157787-2.017547 0.715262c-0.14811 0-2.741841 1.016902-9.24965 6.067092l-4.911111 4.918335-14.597866 15.027746-46.813596-67.337668z m231.777694-46.672711c1.584054-0.57799 3.171721-1.298672 4.907498-2.024772a1681.283262 1681.283262 0 0 1 36.413385-14.449755c-14.597866-23.121415-25.865063-48.697483-33.80701-76.870894H1021.236484v93.345421h0.14811z m-132.365181-11.704302a637.900721 637.900721 0 0 0 30.635289-19.360866l19.223593-12.721204v-13.002974h-49.71619v45.085044h-0.142692z m224.112099-81.639313c3.182559 7.802868 6.646888 15.168631 10.259326 21.963628 11.415307-7.083993 22.400734-14.449756 33.238051-21.963628h-43.497377z m-174.401327-40.464735V492.032244H889.02122v24.849967h49.708965z m195.786965-38.290046V459.520294h-113.132556v19.071871h113.132556z m-195.786965-61.411462v-13.291969h-91.181571c-2.165657 4.049544-4.766613 8.521743-7.513872 13.291969h98.695443z m195.786965-34.527691V363.573916h-113.132556v19.079096h113.132556z m0 0" fill="#D3DADD" p-id="3795"></path><path d="M831.361276 280.924925l47.980413 7.654759c0 1.298672-0.7261 3.901434-1.876662 7.654758-7.661983 21.822744-14.738751 37.719281-21.10748 47.978607H933.092974v42.191481h-95.940959c-3.905046 7.654758-9.542257 17.92131-17.343319 30.635288-3.901434 7.654758-7.087605 13.432854-9.538645 17.336094h111.263119v40.314819h-49.851657v59.532993h59.534799v42.191481H871.681513v92.187635c19.216369-10.259327 38.434544-21.674634 57.510027-34.529498 0 17.914085 1.302284 34.529497 3.901434 49.848045-24.273783 10.259327-48.690258 22.98053-72.971266 38.438157-3.901434 1.298672-8.960655 4.479424-15.314935 9.538644l-5.778096 5.778097-26.874739-38.290047c10.255714-10.259327 14.738751-22.98053 13.431048-38.438156V576.563315h-55.633366v-42.191481h55.633366V474.837035H792.930344v-13.440079c-7.658371-14.012651-16.6118-28.751401-26.880158-44.069949 26.880158-38.434544 48.695677-83.951274 65.31109-136.402082m366.592108 21.094838v237.983864h-109.379232c7.651146 24.277396 17.332482 45.374039 28.751401 63.288123 28.177024-16.615413 54.334694-34.529497 78.751169-53.749478l28.751401 38.438156c-2.593731 1.298672-7.076768 3.901434-13.431048 7.654758-28.184248 16.615413-50.574145 29.477502-67.189557 38.438156 22.969693 21.815519 53.745866 39.010728 92.187635 51.872817a466.441726 466.441726 0 0 1-11.56703 21.096643c-7.651146 10.259327-12.854864 18.4993-15.30771 24.998078-89.59571-37.134066-145.22727-101.00018-166.901903-191.889143h-38.438156v136.257583c6.366924-2.597344 16.04826-6.357893 28.762239-11.556192 21.674634-8.960655 38.434544-15.316741 49.855269-19.219981 0 17.92131 0.57799 33.238051 1.876662 46.094721-12.862089 5.059221-32.66006 12.713979-59.5348 22.98053-10.259327 2.597344-17.914085 5.051996-22.973305 7.654758a3549.703505 3549.703505 0 0 0-34.536722 17.343319l-26.87474-38.438156c11.55258-10.259327 16.6118-22.973305 15.314935-38.438157v-360.810399h241.883492M1004.043081 399.9873h147.821001v-53.749479h-147.821001v53.749479m0 95.948184h147.821001V442.180587h-147.821001v53.754897M807.3801 242.047858l-9.108765 28.469631c-15.45582 48.838368-35.833588 91.609645-60.540864 126.865243l-13.58277 19.368091 13.151084 19.649861c7.804674 11.704302 14.881442 23.119609 21.096643 33.956926v29.331198h-22.973305v111.55392h55.624334v51.152136l0.14811 1.446781c0.57799 6.498778-1.298672 8.95343-3.471554 11.126312l-20.51504 20.516847 16.613606 23.840291 26.885577 38.438156 23.977563 34.240503 29.188507-29.909189c0.581603-0.718875 1.883887-1.876662 3.905046-3.901434 2.313767-1.735777 3.612439-2.602762 4.33854-3.034448l2.886338-1.009677 3.612439-2.313767c13.010199-8.234555 26.152252-15.748427 39.303336-22.393509l21.237528 30.339068 17.204241 24.568197 26.723017-13.440079c10.259327-5.059221 21.674634-10.837317 34.540334-17.195209h0.288995c0.715263-0.288995 4.618503-2.165657 15.744815-4.911111l2.028385-0.57799 2.024772-0.718875c26.582132-10.118441 46.813596-17.92131 59.96468-23.269525l17.048905-6.787773c23.692181 18.492075 50.86314 34.240502 81.639314 46.961706l32.51195 13.43466 13.006587-32.652835c0.437105-1.298672 2.741841-6.067091 10.837316-16.904408l1.29506-1.735777 1.161399-1.876662c5.348216-9.39776 9.386923-16.904408 12.284098-22.541619l18.210305-35.835394-38.149161-12.713979c-13.875378-4.62934-26.596582-9.82764-38.149162-15.755652 6.35428-3.612439 12.862089-7.513873 19.797972-11.704302h0.288995c7.799256-4.622116 10.400212-6.067091 11.126312-6.357893l37.134066-18.640185-24.998077-33.230826-20.086967-27.311844V267.33493H921.383254v42.198706h-11.984266c0.140885-0.57799 0.42988-1.15598 0.57799-1.735777l0.137272-0.437105 0.140886-0.429881c2.172882-6.646888 3.612439-12.424984 3.612438-18.492075V258.813187l-29.177669-4.62031-47.980414-7.661983L807.3801 242.047858z m0 0" fill="#5D6466" p-id="3796"></path></svg>