<?xml version="1.0" standalone="no"?><!DOCTYPE svg PUBLIC "-//W3C//DTD SVG 1.1//EN" "http://www.w3.org/Graphics/SVG/1.1/DTD/svg11.dtd"><svg t="1730371935079" class="icon" viewBox="0 0 1024 1024" version="1.1" xmlns="http://www.w3.org/2000/svg" p-id="2399" xmlns:xlink="http://www.w3.org/1999/xlink" width="200" height="200"><path d="M804.921508 92.03433a511.99872 511.99872 0 1 1-586.046535 0.191999 63.99984 63.99984 0 0 1 73.407816 104.831738 383.99904 383.99904 0 1 0 439.358902-0.127999 63.99984 63.99984 0 1 1 73.279817-104.959738zM511.546241 0.00256a58.239854 58.239854 0 0 1 45.823886 21.567946c12.479969 14.399964 18.687953 31.423921 18.687953 51.199872V504.321299c0 19.711951-6.207984 36.607908-18.687953 50.559874A58.879853 58.879853 0 0 1 511.546241 576.00112a57.983855 57.983855 0 0 1-44.863888-21.055947A73.599816 73.599816 0 0 1 448.0584 504.385299V72.706378c0-19.711951 6.207984-36.735908 18.559954-51.135872C479.226322 7.170542 494.138285 0.00256 511.610241 0.00256z" fill="#fb9b69" p-id="2400"></path></svg>