<?xml version="1.0" standalone="no"?><!DOCTYPE svg PUBLIC "-//W3C//DTD SVG 1.1//EN" "http://www.w3.org/Graphics/SVG/1.1/DTD/svg11.dtd"><svg t="1730171895566" class="icon" viewBox="0 0 1024 1024" version="1.1" xmlns="http://www.w3.org/2000/svg" p-id="2800" xmlns:xlink="http://www.w3.org/1999/xlink" width="200" height="200"><path d="M536.938667 21.12l382.250666 220.693333a53.333333 53.333333 0 0 1 26.666667 46.186667v441.386667a53.333333 53.333333 0 0 1-26.666667 46.208L536.96 996.266667a53.333333 53.333333 0 0 1-53.333333 0L101.333333 775.594667A53.333333 53.333333 0 0 1 74.666667 729.386667V288a53.333333 53.333333 0 0 1 26.666666-46.186667L483.605333 21.12a53.333333 53.333333 0 0 1 53.333334 0z m-10.666667 18.474667a32 32 0 0 0-32 0L112 260.266667A32 32 0 0 0 96 288v441.386667a32 32 0 0 0 16 27.733333l382.272 220.693333a32 32 0 0 0 32 0L908.522667 757.12a32 32 0 0 0 16-27.733333V288a32 32 0 0 0-16-27.712L526.293333 39.594667zM426.666667 661.333333V362.666667l234.666666 149.333333-234.666666 149.333333z" fill="#002FA7" p-id="2801"></path></svg>