<?xml version="1.0" standalone="no"?><!DOCTYPE svg PUBLIC "-//W3C//DTD SVG 1.1//EN" "http://www.w3.org/Graphics/SVG/1.1/DTD/svg11.dtd"><svg t="1732446535023" class="icon" viewBox="0 0 1024 1024" version="1.1" xmlns="http://www.w3.org/2000/svg" p-id="11450" xmlns:xlink="http://www.w3.org/1999/xlink" width="200" height="200"><path d="M0 512C0 109.596444 109.596444 0 512 0s512 109.596444 512 512-109.596444 512-512 512S0 914.403556 0 512z" fill="#297EFE" p-id="11451"></path><path d="M548.323556 475.676444v-154.908444a36.352 36.352 0 1 0-72.647112 0v154.908444h-154.908444a36.352 36.352 0 1 0 0 72.647112h154.908444v154.908444a36.352 36.352 0 1 0 72.647112 0v-154.908444h154.908444a36.408889 36.408889 0 0 0 30.264889-16.213334 36.238222 36.238222 0 0 0-4.579556-45.795555 36.408889 36.408889 0 0 0-25.685333-10.638223h-154.908444z" fill="#FFFFFF" opacity=".85" p-id="11452"></path></svg>